<svg width="32" height="32" viewBox="0 0 32 32" fill="none" xmlns="http://www.w3.org/2000/svg">
<path fill-rule="evenodd" clip-rule="evenodd" d="M7.59767 20.5474C10.1893 19.2499 12.5876 18.1254 15.1528 18.1254C13.7472 19.1634 13.4251 19.6247 13.4397 19.7256C13.5422 20.2158 14.0635 21.2048 15.3285 21.2394C16.3827 20.409 17.7591 19.3941 18.3155 18.9904V19.5526L21.3902 17.0442V17.5632C21.7958 17.2689 22.2163 16.9709 22.6449 16.667C25.7443 14.4699 29.2693 11.9711 30.6585 8.4375C26.5827 8.98165 22.8328 11.9327 20.8612 13.4843C20.3255 13.9058 19.9211 14.2241 19.6771 14.3627C19.6771 14.3627 13.1323 13.9734 7.59767 20.5474ZM18.1398 20.6339L21.6099 18.2984C21.6099 18.2984 20.951 25.5211 13.7033 26.3861C16.9977 23.9208 18.1398 20.6339 18.1398 20.6339Z" fill="#303030"/>
<path d="M2.50234 28.8512L12.3706 20.6782C12.3706 20.6782 12.5908 21.2208 13.0314 21.5816C13.4719 21.9423 14.0887 22.1408 14.0887 22.1408L2.50234 28.8512Z" fill="url(#paint0_linear_311_659)"/>
<path d="M7.6486 7.1023C7.65991 7.0927 7.67124 7.0831 7.68257 7.07353L9.26157 9.76636C7.76486 10.852 6.60585 12.3791 5.94131 14.3724L3.2088 13.6009C4.06993 11.0903 5.59928 8.84328 7.6486 7.1023Z" fill="url(#paint1_linear_311_659)"/>
<path d="M2.82658 14.9101C2.81634 14.9523 2.80628 14.9947 2.79641 15.0371C2.10916 17.9879 2.69303 21.527 3.85836 24.373C3.9411 24.5751 4.19439 24.6434 4.3737 24.5157L6.09666 23.2884C6.2307 23.1929 6.27674 23.0176 6.2112 22.868C5.63312 21.5488 5.31276 20.094 5.31276 18.5653C5.31276 17.5295 5.40841 16.5716 5.58951 15.6901L2.82658 14.9101Z" fill="url(#paint2_linear_311_659)"/>
<path d="M16.3051 7.71641C14.146 7.71641 12.1322 8.14894 10.4335 9.04059L8.78394 6.22748C10.9977 4.68402 13.6007 3.75353 16.3209 3.54756C16.8367 3.5085 17.3663 3.50241 17.9028 3.53217L16.9555 7.73929C16.7462 7.72431 16.5295 7.71641 16.3051 7.71641Z" fill="url(#paint3_linear_311_659)"/>
<path d="M18.3241 7.95421C20.0893 8.39433 21.189 9.34973 21.9296 9.99488C22.0538 10.103 22.2378 10.1074 22.3683 10.0067L25.5641 7.53824C25.7189 7.41868 25.7417 7.19578 25.609 7.05275C23.8226 5.12734 21.5462 4.0754 19.2847 3.68817L18.3241 7.95421Z" fill="url(#paint4_linear_311_659)"/>
<defs>
<linearGradient id="paint0_linear_311_659" x1="12.4459" y1="21.8701" x2="4.39498" y2="27.2632" gradientUnits="userSpaceOnUse">
<stop stop-color="#AB0001"/>
<stop offset="1" stop-color="#FF0001"/>
</linearGradient>
<linearGradient id="paint1_linear_311_659" x1="14.0991" y1="3.51343" x2="4.30919" y2="24.2021" gradientUnits="userSpaceOnUse">
<stop stop-color="#B10304"/>
<stop offset="1" stop-color="#FF0102"/>
</linearGradient>
<linearGradient id="paint2_linear_311_659" x1="14.0991" y1="3.51343" x2="4.30919" y2="24.2021" gradientUnits="userSpaceOnUse">
<stop stop-color="#B10304"/>
<stop offset="1" stop-color="#FF0102"/>
</linearGradient>
<linearGradient id="paint3_linear_311_659" x1="14.0991" y1="3.51343" x2="4.30919" y2="24.2021" gradientUnits="userSpaceOnUse">
<stop stop-color="#B10304"/>
<stop offset="1" stop-color="#FF0102"/>
</linearGradient>
<linearGradient id="paint4_linear_311_659" x1="14.0991" y1="3.51343" x2="4.30919" y2="24.2021" gradientUnits="userSpaceOnUse">
<stop stop-color="#B10304"/>
<stop offset="1" stop-color="#FF0102"/>
</linearGradient>
</defs>
</svg>
