<svg width="29" height="29" viewBox="0 0 29 29" fill="none" xmlns="http://www.w3.org/2000/svg">
<path fill-rule="evenodd" clip-rule="evenodd" d="M28.2902 1.75013L21.6126 19.8187C21.2101 20.908 20.4903 21.8525 19.5456 22.5312L11.5083 28.3055C11.0097 28.6637 10.3655 28.1104 10.6471 27.5658L13.0166 22.984C13.2841 22.4666 12.7091 21.921 12.204 22.213L1.75404 28.2522C1.2358 28.5517 0.65488 27.9726 0.955323 27.4559L7.00991 17.0447C7.30522 16.5369 6.74707 15.9616 6.22815 16.239L1.7522 18.6313C1.20863 18.9218 0.64282 18.2837 0.998781 17.7815L6.69026 9.75312C7.37294 8.79015 8.33265 8.05634 9.44258 7.64869L27.5398 1.00203C28.0076 0.8302 28.4626 1.28374 28.2902 1.75013ZM20.2561 17.5059C20.164 17.7552 19.8436 17.8254 19.6551 17.6375L17.1794 15.1694C17.0367 15.0272 16.8054 15.0272 16.6628 15.1694L12.5651 19.2544C12.4224 19.3966 12.1912 19.3966 12.0485 19.2544L9.98109 17.1934C9.83844 17.0512 9.83844 16.8206 9.98109 16.6784L14.0788 12.5934C14.2214 12.4512 14.2214 12.2207 14.0788 12.0785L11.603 9.61043C11.4146 9.42253 11.4849 9.10314 11.7351 9.01127L24.4841 4.32884C24.7765 4.22145 25.0609 4.50491 24.9532 4.7964L20.2561 17.5059Z" fill="#190B40"/>
</svg>
