<svg width="36" height="28" viewBox="0 0 36 28" fill="none" xmlns="http://www.w3.org/2000/svg">
<path fill-rule="evenodd" clip-rule="evenodd" d="M0 1C0 0.447715 0.447715 0 1 0H3C3.55228 0 4 0.447715 4 1V3C4 3.55228 3.55228 4 3 4H1C0.447715 4 0 3.55228 0 3V1ZM1 12C0.447715 12 0 12.4477 0 13V15C0 15.5523 0.447715 16 1 16H3C3.55228 16 4 15.5523 4 15V13C4 12.4477 3.55228 12 3 12H1ZM17 12C16.4477 12 16 12.4477 16 13V15C16 15.5523 16.4477 16 17 16H19C19.5523 16 20 15.5523 20 15V13C20 12.4477 19.5523 12 19 12H17ZM16 25C16 24.4477 16.4477 24 17 24H19C19.5523 24 20 24.4477 20 25V27C20 27.5523 19.5523 28 19 28H17C16.4477 28 16 27.5523 16 27V25ZM33 12C32.4477 12 32 12.4477 32 13V15C32 15.5523 32.4477 16 33 16H35C35.5523 16 36 15.5523 36 15V13C36 12.4477 35.5523 12 35 12H33ZM17 0C16.4477 0 16 0.447715 16 1V3C16 3.55228 16.4477 4 17 4H19C19.5523 4 20 3.55228 20 3V1C20 0.447715 19.5523 0 19 0H17Z" fill="#C90000"/>
</svg>
