<svg width="36" height="28" viewBox="0 0 36 28" fill="none" xmlns="http://www.w3.org/2000/svg">
<path fill-rule="evenodd" clip-rule="evenodd" d="M0 1C0 0.447715 0.447715 0 1 0H3C3.55228 0 4 0.447715 4 1V3C4 3.55228 3.55228 4 3 4H1C0.447715 4 0 3.55228 0 3V1ZM1 12C0.447715 12 0 12.4477 0 13V15C0 15.5523 0.447715 16 1 16H3C3.55228 16 4 15.5523 4 15V13C4 12.4477 3.55228 12 3 12H1ZM1 24C0.447715 24 0 24.4477 0 25V27C0 27.5523 0.447715 28 1 28H3C3.55228 28 4 27.5523 4 27V25C4 24.4477 3.55228 24 3 24H1ZM16 13C16 12.4477 16.4477 12 17 12H19C19.5523 12 20 12.4477 20 13V15C20 15.5523 19.5523 16 19 16H17C16.4477 16 16 15.5523 16 15V13ZM17 24C16.4477 24 16 24.4477 16 25V27C16 27.5523 16.4477 28 17 28H19C19.5523 28 20 27.5523 20 27V25C20 24.4477 19.5523 24 19 24H17ZM32 13C32 12.4477 32.4477 12 33 12H35C35.5523 12 36 12.4477 36 13V15C36 15.5523 35.5523 16 35 16H33C32.4477 16 32 15.5523 32 15V13ZM33 24C32.4477 24 32 24.4477 32 25V27C32 27.5523 32.4477 28 33 28H35C35.5523 28 36 27.5523 36 27V25C36 24.4477 35.5523 24 35 24H33ZM33 0C32.4477 0 32 0.447715 32 1V3C32 3.55228 32.4477 4 33 4H35C35.5523 4 36 3.55228 36 3V1C36 0.447715 35.5523 0 35 0H33Z" fill="#C90000"/>
</svg>
