<svg width="36" height="28" viewBox="0 0 36 28" fill="none" xmlns="http://www.w3.org/2000/svg">
<path fill-rule="evenodd" clip-rule="evenodd" d="M16 1C16 0.447715 16.4477 0 17 0H19C19.5523 0 20 0.447715 20 1V3C20 3.55228 19.5523 4 19 4H17C16.4477 4 16 3.55228 16 3V1ZM0 13C0 12.4477 0.447715 12 1 12H3C3.55228 12 4 12.4477 4 13V15C4 15.5523 3.55228 16 3 16H1C0.447715 16 0 15.5523 0 15V13ZM0 25C0 24.4477 0.447715 24 1 24H3C3.55228 24 4 24.4477 4 25V27C4 27.5523 3.55228 28 3 28H1C0.447715 28 0 27.5523 0 27V25ZM17 12C16.4477 12 16 12.4477 16 13V15C16 15.5523 16.4477 16 17 16H19C19.5523 16 20 15.5523 20 15V13C20 12.4477 19.5523 12 19 12H17ZM16 25C16 24.4477 16.4477 24 17 24H19C19.5523 24 20 24.4477 20 25V27C20 27.5523 19.5523 28 19 28H17C16.4477 28 16 27.5523 16 27V25ZM33 12C32.4477 12 32 12.4477 32 13V15C32 15.5523 32.4477 16 33 16H35C35.5523 16 36 15.5523 36 15V13C36 12.4477 35.5523 12 35 12H33ZM33 0C32.4477 0 32 0.447715 32 1V3C32 3.55228 32.4477 4 33 4H35C35.5523 4 36 3.55228 36 3V1C36 0.447715 35.5523 0 35 0H33Z" fill="#C90000"/>
</svg>
